<?xml version="1.0" encoding="utf-8"?>
<!-- Generator: Adobe Illustrator 18.0.0, SVG Export Plug-In . SVG Version: 6.00 Build 0)  -->
<!DOCTYPE svg PUBLIC "-//W3C//DTD SVG 1.1//EN" "http://www.w3.org/Graphics/SVG/1.1/DTD/svg11.dtd">
<svg version="1.1" id="Layer_1" xmlns="http://www.w3.org/2000/svg" xmlns:xlink="http://www.w3.org/1999/xlink" x="0px" y="0px"
	 viewBox="0 0 255 458.9" enable-background="new 0 0 255 458.9" xml:space="preserve">
<g>
	<path fill="#FFFFFF" fill-opacity="0.0" d="M114.1,246C26.2,246,28,332,28,332s-10.5,96.6,96.6,96.6S228,325.2,228,325.2v-246c0-72.5,0-72,0-72"/>
	<path fill="#FFFFFF" d="M114.1,226c-12.1,0-23.2,1.4-33.1,4.1c-8.7,2.3-16.6,5.6-23.6,9.7c-6.1,3.5-11.6,7.6-16.3,12c-8.3,7.7-14.5,16.4-19.1,24.9
		c-3.4,6.4-6,12.8-7.9,18.7c-2.9,9-4.4,17.1-5.1,23.4C8.1,325.2,8,329.8,8,331.6c0,0.4,0,0.7,0,0.8l20-0.4l-19.9-2.2
		c-0.1,0.6-0.4,3.9-0.4,9.1c0,6.6,0.5,16.4,3,27.7c1.9,8.4,4.9,17.8,9.7,27.2c3.6,7,8.3,14.1,14.3,20.7c4.5,5,9.7,9.6,15.7,13.8
		c9,6.3,19.7,11.4,32.1,14.9c12.4,3.5,26.3,5.4,42.1,5.4c14,0,26.7-1.6,38.2-4.5c10-2.6,19.1-6.2,27.1-10.7
		c7-3.9,13.3-8.4,18.8-13.3c9.6-8.6,16.9-18.3,22.4-28c4.1-7.3,7.1-14.6,9.5-21.5c3.5-10.4,5.3-20,6.3-27.7c1-7.7,1.1-13.5,1.1-16.5
		c0-1.1,0-1.8,0-2l-20,0.7h20v-246c0-35.8,0-53.8,0-62.8c0-4.5,0-6.8,0-8c0-1.2,0-1.2,0-1.2h-40c0,0,0,0,0,1.2c0,3.5,0,17.2,0,70.8
		v246.4l0,0.4l10.3-0.4l-10.4,0.3l0,0.1l10.3-0.4l-10.4,0.3c0,0,0,0,0,0.2s0,0.3,0,0.5c0,2-0.2,8.8-1.7,17.3
		c-1.2,6.4-3.2,13.9-6.3,21.2c-2.4,5.5-5.4,10.9-9.2,16c-2.9,3.8-6.2,7.3-10,10.5c-5.8,4.8-12.8,9-21.9,12.1
		c-9.1,3.1-20.2,5-34.2,5.1c-9.9,0-18.4-0.9-25.7-2.5c-6.3-1.4-11.7-3.2-16.3-5.3c-4-1.9-7.5-4-10.6-6.2c-5.3-4-9.4-8.5-12.7-13.3
		c-2.4-3.6-4.4-7.5-6-11.4c-2.4-5.9-3.8-11.9-4.6-17.3c-0.8-5.4-1.1-10.2-1-13.5c0-1.7,0.1-3.1,0.1-3.9c0-0.4,0-0.7,0.1-0.8l0-0.1
		l-9.5-0.9l9.5,1l0-0.1l-9.5-0.9l9.5,1l0.1-1.3l0-1.3l-10.4,0.2l10.5-0.1l0-0.1l-10.4,0.2l10.5-0.1l0-0.1c0-0.7,0.1-5.7,1.3-12.5
		c0.9-5.1,2.5-11.2,5-17.2c1.9-4.5,4.3-9,7.3-13.1c2.3-3.1,4.8-6,7.9-8.6c4.5-3.9,10-7.3,17.2-9.9c7.2-2.5,16.1-4.2,27.5-4.2V226
		L114.1,226z"/>
</g>
</svg>
